inDegrees=yes
name=ik_S42_A01_T01
DataType=double
version=3
OpenSimVersion=4.3-2021-08-27-4bc7ad9
endheader
time	pelvis_tilt	pelvis_list	pelvis_rotation	pelvis_tx	pelvis_ty	pelvis_tz	hip_flexion_r	hip_adduction_r	hip_rotation_r	knee_angle_r	knee_angle_r_beta	ankle_angle_r	subtalar_angle_r	mtp_angle_r	hip_flexion_l	hip_adduction_l	hip_rotation_l	knee_angle_l	knee_angle_l_beta	ankle_angle_l	subtalar_angle_l	mtp_angle_l	lumbar_extension	lumbar_bending	lumbar_rotation	arm_flex_r	arm_add_r	arm_rot_r	elbow_flex_r	pro_sup_r	wrist_flex_r	wrist_dev_r	arm_flex_l	arm_add_l	arm_rot_l	elbow_flex_l	pro_sup_l	wrist_flex_l	wrist_dev_l
10.45999999999987	-0.2661546997993494	2.326017177963586	90.45900156976711	0	0.9399999999999999	0	18.62443416223288	1.299612007347864	-2.843398104658297	0.207890339287845	0.003628370903661019	0	0	0	-16.40550208046503	-0.7580103562709086	-11.99744021375535	16.24024947597525	0.2834458247010519	0	0	0	0	0	0	29.194928543909	-29.19492854390896	4.16499859000667	73.26804652035116	85.83500164427242	0	0	29.194928543909	-29.19492854390896	4.16499859000667	73.26804652035116	85.83500164411733	0	0
10.47999999999987	0.5671072626978026	2.414125280877647	89.80940341018973	0	0.9399999999999999	0	18.68331412466282	2.430291809136122	-2.069733146504944	3.077734903876299	0.0537166075761926	0	0	0	-16.63043718289708	-1.689326095344216	-12.94780819228013	18.64800506316098	0.3254690872807323	0	0	0	0	0	0	29.20286508923928	-29.20286508923925	4.165827583648404	73.27986922426705	85.83417265067443	0	0	29.20286508923928	-29.20286508923925	4.165827583648404	73.27986922426705	85.83417265051942	0	0
10.49999999999986	0.9970941143014105	2.433732092762314	89.53402101663514	0	0.9399999999999999	0	18.90079611883072	3.475316778157245	-0.1318441980326097	5.533729305815465	0.09658179630058004	0	0	0	-14.61694169399922	-3.70888056012638	-12.74883359337859	23.69652479720818	0.4135823789917643	0	0	0	0	0	0	29.45172364770399	-29.45172364770396	4.187977294136334	73.59325520260938	85.81202294132592	0	0	29.45172364770399	-29.45172364770396	4.187977294136334	73.59325520260938	85.81202294117503	0	0
10.51999999999986	1.151914222720582	2.401615379589434	89.59156792568913	0	0.9399999999999999	0	18.94590478668435	3.635896429131077	-0.2691779977051409	7.593285347752587	0.1325278303617252	0	0	0	-13.01343216010033	-4.870674001963788	-10.61477898975172	28.00117112109561	0.4887126304774702	0	0	0	0	0	0	29.60072342631984	-29.60072342631981	4.201218194003109	73.7805834008259	85.79878204214013	0	0	29.60072342631984	-29.60072342631981	4.201218194003109	73.7805834008259	85.79878204199177	0	0
10.53999999999986	1.345655387392897	2.301321142370338	89.89694377258022	0	0.9399999999999999	0	13.17743267178707	5.18979813759928	-5.898721605639212	5.557710838006903	0.09700035299699367	0	0	0	-8.963256901685758	-6.604470793864434	-8.198802139698305	34.34929381328621	0.5995082727767627	0	0	0	0	0	0	29.6871121009564	-29.68711210095637	4.208911988037263	73.88943884564313	85.79108824850174	0	0	29.6871121009564	-29.68711210095637	4.208911988037263	73.88943884564313	85.79108824835491	0	0
10.55999999999986	1.587917760633742	2.234575948976754	90.31106524540178	0	0.9399999999999999	0	13.21218316754519	5.313428341796758	-6.674992502002807	6.343020175526678	0.1107065865833692	0	0	0	-8.85029087457092	-6.91126208189945	-7.816577780442183	34.36795958363259	0.5998340519267282	0	0	0	0	0	0	29.69118727583604	-29.69118727583601	4.209327293659301	73.89534959010102	85.79067294290157	0	0	29.69118727583604	-29.69118727583601	4.209327293659301	73.89534959010102	85.79067294275468	0	0
10.57999999999986	1.950666328244595	2.106672588609747	90.66771962127976	0	0.9399999999999999	0	11.75157114024515	5.733693975258509	-7.585720451777341	5.599267738483877	0.09772565773724046	0	0	0	-4.717450153690685	-8.41468941672891	-8.348299355772893	41.76701052465719	0.7289718523703923	0	0	0	0	0	0	29.90096727085146	-29.90096727085142	4.22749979756528	74.15211360806876	85.77250043992588	0	0	29.90096727085146	-29.90096727085142	4.22749979756528	74.15211360806876	85.77250043978238	0	0
10.59999999999986	2.474880324268934	1.931555018578949	90.83109641987092	0	0.9399999999999999	0	10.98938321300708	5.723534394140225	-7.928368598149051	6.433497391443673	0.1122857118991586	0	0	0	-2.431369884015712	-9.564174208493055	-9.65743011289611	44.00481503887444	0.7680289091594755	0	0	0	0	0	0	29.99814070581296	-29.99814070581293	4.235935633009439	74.27132151962344	85.76406460491377	0	0	29.99814070581296	-29.99814070581293	4.235935633009439	74.27132151962344	85.76406460477187	0	0
10.61999999999986	2.703891137391258	1.89208472805427	90.8499866216865	0	0.9399999999999999	0	10.13617736645339	5.894075811289113	-6.769211920113646	6.556292073128351	0.1144288833984946	0	0	0	-0.1639327063615525	-10.75981970562038	-10.52581859182963	46.01041921836711	0.8030333055833819	0	0	0	0	0	0	30.04998594561132	-30.04998594561129	4.240458674692788	74.33525062512128	85.75954156346228	0	0	30.04998594561132	-30.04998594561129	4.240458674692788	74.33525062512128	85.75954156332119	0	0
10.63999999999986	3.028436243468704	1.873290213896675	90.9231981699556	0	0.9399999999999999	0	9.382086018936532	6.385002960831971	-5.410306618354788	6.215154523285942	0.1084749099515583	0	0	0	2.088813414759316	-11.64508973753876	-11.82629890355195	47.22549496197691	0.8242403779704913	0	0	0	0	0	0	30.08217803173796	-30.08217803173793	4.243316410834556	74.3756716052076	85.75668382746738	0	0	30.08217803173796	-30.08217803173793	4.243316410834556	74.3756716052076	85.75668382732685	0	0
